<?xml version="1.0" encoding="UTF-8"?>
<svg width="283px" height="37px" viewBox="0 0 283 37" version="1.1" xmlns="http://www.w3.org/2000/svg" xmlns:xlink="http://www.w3.org/1999/xlink">
    <!-- Generator: sketchtool 53.2 (72643) - https://sketchapp.com -->
    <title>721229C2-BD26-4973-8404-4B0C312C54E8</title>
    <desc>Created with sketchtool.</desc>
    <g id="Styleguide" stroke="none" stroke-width="1" fill="none" fill-rule="evenodd">
        <g transform="translate(-129.000000, -212.000000)" id="Group-3-Copy">
            <g transform="translate(132.000000, 212.000000)">
                <path d="M66,28.95 L66,35.6 L39.65,35.6 L39.65,2.6 L65.35,2.6 L65.35,9.25 L48.25,9.25 L48.25,15.95 L61.85,15.95 L61.85,22.2 L48.25,22.2 L48.25,28.95 L66,28.95 Z M87.15,34.2 C86.3166625,34.7666695 85.2583397,35.2249982 83.975,35.575 C82.6916602,35.9250017 81.4000065,36.1 80.1,36.1 C77.1333185,36.1 74.8666745,35.466673 73.3,34.2 C71.7333255,32.933327 70.9333335,30.900014 70.9,28.1 L70.9,16.65 L66.6,16.65 L66.6,10.6 L70.9,10.6 L70.9,5 L79.4,2.65 L79.4,10.6 L86.9,10.6 L86.9,16.65 L79.4,16.65 L79.4,26.7 C79.4,28.9333445 80.499989,30.05 82.7,30.05 C84.0666735,30.05 85.2666615,29.683337 86.3,28.95 L87.15,34.2 Z M106.55,10.1 C109.183346,10.1 111.283325,10.866659 112.85,12.4 C114.416674,13.933341 115.2,16.1166525 115.2,18.95 L115.2,35.6 L106.7,35.6 L106.7,21.3 C106.7,18.1333175 105.516678,16.55 103.15,16.55 C101.81666,16.55 100.733337,17.0333285 99.8999999,18 C99.0666624,18.9666715 98.6499999,20.44999 98.6499999,22.45 L98.6499999,35.6 L90.1499999,35.6 L90.1499999,-5.68434189e-14 L98.6499999,-5.68434189e-14 L98.6499999,15.15 C99.3833369,13.483325 100.424993,12.2250042 101.775,11.375 C103.125007,10.5249957 104.716657,10.1 106.55,10.1 Z M150.2,35.6 L140.65,35.6 L130.4,17.75 L127.9,12.75 L127.85,12.75 L128.05,18.95 L128.05,35.6 L120.45,35.6 L120.45,2.6 L130,2.6 L140.25,20.45 L142.75,25.45 L142.8,25.45 L142.6,19.25 L142.6,2.6 L150.2,2.6 L150.2,35.6 Z M179.75,30.75 C180.383336,30.75 180.899998,30.683334 181.3,30.55 L180.65,35.3 C179.683328,35.833336 178.550006,36.1 177.25,36.1 C173.649982,36.1 171.500003,34.8166795 170.8,32.25 C169.299992,34.8166795 166.333355,36.1 161.9,36.1 C159.399987,36.1 157.48334,35.566672 156.15,34.5 C154.81666,33.433328 154.15,31.8833435 154.15,29.85 C154.15,27.716656 154.908326,25.9916732 156.425,24.675 C157.941674,23.3583267 160.433316,22.3500035 163.9,21.65 L169.55,20.55 L169.55,19.65 C169.55,18.516661 169.233336,17.61667 168.6,16.95 C167.966663,16.28333 167.100005,15.95 166,15.95 C164.733327,15.95 163.700004,16.249997 162.9,16.85 C162.099996,17.450003 161.583334,18.4333265 161.35,19.8 L154.45,17.8 C154.883335,15.3666545 156.083323,13.4750067 158.05,12.125 C160.016676,10.7749932 162.66665,10.1 166,10.1 C169.900019,10.1 172.866656,10.899992 174.9,12.5 C176.933343,14.100008 177.95,16.499984 177.95,19.7 L177.95,28.8 C177.95,30.1000065 178.549994,30.75 179.75,30.75 Z M165,30.6 C166.166672,30.6 167.216662,30.2750033 168.15,29.625 C169.083338,28.9749968 169.55,28.116672 169.55,27.05 L169.55,24.9 L165.5,25.85 C164.433328,26.116668 163.675002,26.4416647 163.225,26.825 C162.774998,27.2083352 162.55,27.7499965 162.55,28.45 C162.55,29.1500035 162.766664,29.6833315 163.2,30.05 C163.633335,30.4166685 164.233329,30.6 165,30.6 Z M216,10.1 C218.533346,10.1 220.591659,10.866659 222.175,12.4 C223.758341,13.933341 224.55,16.1166525 224.55,18.95 L224.55,35.6 L216.05,35.6 L216.05,20.9 C216.05,18.033319 214.916678,16.6 212.65,16.6 C211.31666,16.6 210.250004,17.0833285 209.45,18.05 C208.649996,19.0166715 208.25,20.4166575 208.25,22.25 L208.25,35.6 L199.75,35.6 L199.75,20.9 C199.75,18.033319 198.616678,16.6 196.35,16.6 C195.083327,16.6 194.033337,17.0833285 193.2,18.05 C192.366662,19.0166715 191.95,20.466657 191.95,22.4 L191.95,35.6 L183.45,35.6 L183.45,10.6 L191.05,10.6 L191.3,15.4 C192.100004,13.666658 193.216659,12.3500045 194.65,11.45 C196.08334,10.5499955 197.766657,10.1 199.7,10.1 C201.600009,10.1 203.24166,10.533329 204.625,11.4 C206.00834,12.266671 206.999997,13.5166585 207.6,15.15 C208.400004,13.5166585 209.541659,12.266671 211.025,11.4 C212.508341,10.533329 214.166657,10.1 216,10.1 Z M253.65,22.75 C253.65,23.883339 253.566667,24.816663 253.4,25.55 L236.35,25.55 C236.616668,27.1166745 237.191662,28.266663 238.075,29 C238.958337,29.733337 240.133326,30.1 241.6,30.1 C242.833339,30.1 243.841662,29.866669 244.625,29.4 C245.408337,28.933331 245.933332,28.2500045 246.2,27.35 L253.1,29.55 C252.399996,31.683344 251.041676,33.3083277 249.025,34.425 C247.008323,35.5416722 244.533348,36.1 241.6,36.1 C237.233311,36.1 233.891678,34.966678 231.575,32.7 C229.258321,30.433322 228.1,27.233354 228.1,23.1 C228.1,18.966646 229.233322,15.766678 231.5,13.5 C233.766678,11.233322 236.983312,10.1 241.15,10.1 C245.183353,10.1 248.274989,11.2083222 250.425,13.425 C252.57501,15.6416777 253.65,18.74998 253.65,22.75 Z M241.1,16.05 C238.399986,16.05 236.800002,17.683317 236.3,20.95 L245.7,20.95 C245.299998,17.683317 243.76668,16.05 241.1,16.05 Z M267.55,36.1 C261.816638,36.1 257.750012,34.633348 255.35,31.7 L259.75,26.9 C261.18334,29.2666785 263.649982,30.45 267.15,30.45 C268.316672,30.45 269.23333,30.2916682 269.9,29.975 C270.56667,29.6583317 270.9,29.233336 270.9,28.7 C270.9,28.233331 270.558336,27.8250018 269.875,27.475 C269.191663,27.1249982 268.016675,26.783335 266.35,26.45 C262.616648,25.716663 259.958341,24.716673 258.375,23.45 C256.791658,22.183327 256,20.5000105 256,18.4 C256,16.9666595 256.449995,15.616673 257.35,14.35 C258.250004,13.083327 259.608324,12.0583372 261.425,11.275 C263.241675,10.4916627 265.449987,10.1 268.05,10.1 C270.916681,10.1 273.258324,10.4916627 275.075,11.275 C276.891675,12.0583372 278.366661,13.2333255 279.5,14.8 L275.1,19.1 C274.299996,17.9333275 273.350005,17.083336 272.25,16.55 C271.149994,16.016664 269.833341,15.75 268.3,15.75 C267.099994,15.75 266.16667,15.9333315 265.5,16.3 C264.83333,16.6666685 264.5,17.116664 264.5,17.65 C264.5,18.1500025 264.841663,18.5749982 265.525,18.925 C266.208336,19.2750017 267.399991,19.616665 269.1,19.95 C272.766685,20.5833365 275.408325,21.5249937 277.025,22.775 C278.641674,24.0250062 279.45,25.7333225 279.45,27.9 C279.45,30.3333455 278.433343,32.3083257 276.4,33.825 C274.366656,35.3416742 271.416686,36.1 267.55,36.1 Z" id="EthNames" fill="#1C1F26" fill-rule="nonzero"></path>
                <path d="M0,33.6 L26.9705627,33.6" id="Line-3-Copy" stroke="#ED7354" stroke-width="6" stroke-linecap="square"></path>
            </g>
        </g>
    </g>
</svg>